<?xml version="1.0" encoding="UTF-8" standalone="no"?>
<!DOCTYPE svg PUBLIC "-//W3C//DTD SVG 1.1//EN" "http://www.w3.org/Graphics/SVG/1.1/DTD/svg11.dtd">
<svg width="100%" height="100%" viewBox="0 0 512 512" version="1.1" xmlns="http://www.w3.org/2000/svg" xmlns:xlink="http://www.w3.org/1999/xlink" xml:space="preserve" xmlns:serif="http://www.serif.com/" style="fill-rule:evenodd;clip-rule:evenodd;stroke-linejoin:round;stroke-miterlimit:2;">
    <g>
        <g>
            <path d="M69.808,372.35C50.414,372.35 33.935,379.139 20.357,392.71C6.788,406.281 0,422.764 0,442.157C0,461.555 6.781,478.034 20.357,491.604C33.935,505.176 50.419,511.965 69.808,511.965C89.2,511.965 105.68,505.176 119.256,491.604C132.826,478.034 139.614,461.555 139.614,442.157C139.614,422.763 132.826,406.281 119.256,392.71C105.684,379.139 89.204,372.35 69.808,372.35Z" style="fill:rgb(255,192,72);fill-rule:nonzero;"/>
            <path d="M230.517,281.447C203.124,253.815 171.734,231.819 136.344,215.459C100.953,199.095 63.864,189.339 25.083,186.188L23.268,186.188C16.966,186.188 11.753,188.25 7.636,192.369C2.543,196.727 0,202.428 0,209.456L0,258.541C0,264.599 1.998,269.811 5.996,274.178C9.994,278.545 15.024,280.968 21.084,281.447C76.591,286.782 124.04,309.148 163.427,348.533C202.817,387.917 225.179,435.369 230.511,490.873C230.998,496.94 233.42,501.968 237.786,505.96C242.15,509.969 247.359,511.971 253.418,511.971L302.505,511.971C309.531,511.971 315.226,509.431 319.589,504.335C324.2,499.481 326.257,493.662 325.782,486.877C322.626,448.103 312.869,411.011 296.508,375.623C280.149,340.229 258.149,308.843 230.517,281.447Z" style="fill:rgb(255,192,72);fill-rule:nonzero;"/>
            <path d="M468.302,305.26C442.367,247.208 406.735,195.64 361.41,150.553C316.321,105.224 264.756,69.594 206.698,43.656C148.647,17.724 87.867,3.177 24.357,0.026L23.268,0.026C16.966,0.026 11.633,2.208 7.269,6.572C2.423,10.931 0,16.51 0,23.298L0,75.289C0,81.351 2.123,86.619 6.362,91.104C10.603,95.591 15.752,97.951 21.813,98.198C73.929,101.354 123.437,113.719 170.341,135.291C217.244,156.864 257.966,184.922 292.508,219.457C327.043,253.998 355.099,294.722 376.673,341.625C398.246,388.536 410.493,438.036 413.399,490.15C413.647,496.217 416.005,501.368 420.485,505.609C424.973,509.848 430.37,511.975 436.671,511.975L488.659,511.975C495.448,511.975 501.013,509.553 505.385,504.697C510.236,499.85 512.411,494.16 511.936,487.613C508.79,424.098 494.237,363.319 468.302,305.26Z" style="fill:rgb(255,192,72);fill-rule:nonzero;"/>
        </g>
    </g>
</svg>
