<?xml version="1.0" encoding="utf-8"?>
<!-- Generator: Adobe Illustrator 19.0.0, SVG Export Plug-In . SVG Version: 6.00 Build 0)  -->
<svg version="1.1" xmlns="http://www.w3.org/2000/svg" xmlns:xlink="http://www.w3.org/1999/xlink" x="0px" y="0px"
	 viewBox="0 0 512 512" style="enable-background:new 0 0 512 512;" xml:space="preserve">
<style type="text/css">
	.st0{fill:#881C1C;}
	.st1{display:none;}
	.st2{display:inline;fill:#881C1C;}
	.st3{display:inline;fill:#1E1E1E;}
	.st4{fill:#FFFFFF;}
	.st5{display:inline;}
	.st6{display:inline;fill:#FFFFFF;}
	.st7{font-family:'GillSans';}
	.st8{font-size:236.7353px;}
	.st9{font-family:'MyriadPro-Regular';}
	.st10{font-size:242.564px;}
	.st11{fill:#F7F7F7;}
	.st12{display:inline;fill:#F7F7F7;}
	.st13{font-size:221.0416px;}
	.st14{font-size:212.7619px;}
	.st15{font-size:167.1542px;}
</style>
<g id="Layer_12">
</g>
<g id="Shield">
	<g id="XMLID_3_">
		<g id="XMLID_6_">
			<path id="XMLID_1_" class="st0" d="M257.4,493.8C28.6,419.8,40,106.8,40,106.8V56h218.6H472v50.8c0,0,13,313-215,387"/>
		</g>
		<line id="XMLID_2_" class="st0" x1="42" y1="109" x2="474" y2="109"/>
	</g>
	<rect id="XMLID_8_" x="39.9" y="17.5" width="432.1" height="90.8"/>
</g>
<g id="Stripe_Removal" class="st1">
	<rect id="XMLID_11_" x="40" y="17.5" class="st2" width="432.1" height="90.8"/>
</g>
<g id="Stripe_Recolor" class="st1">
	<rect id="XMLID_14_" x="39.9" y="17.5" class="st3" width="432.1" height="90.8"/>
</g>
<g id="Design_8">
	<g id="XMLID_46_">
		<path id="XMLID_47_" class="st0" d="M39.9,109c-0.3,14.8-0.3,104,33.2,194.4L256,120.5l183.7,183.7
			c33.2-90.7,32.7-180.3,32.4-195.2H42H39.9z"/>
		<path id="XMLID_75_" class="st4" d="M73.1,303.4c8.5,23.1,19.3,46.2,32.7,68.3L256,221.5l151.1,151.1
			c13.4-22.1,24.1-45.3,32.6-68.4L256,120.5L73.1,303.4z"/>
		<path id="XMLID_78_" class="st0" d="M257.4,493.8c-0.1,0-0.1,0-0.2-0.1c-0.1,0-0.1,0-0.2,0.1H257.4z"/>
		<path id="XMLID_79_" class="st0" d="M105.8,371.7c32.2,52.8,80.2,99,151.4,122.1c70.6-23,118-68.8,149.9-121.2L256,221.5
			L105.8,371.7z"/>
	</g>
	<circle id="XMLID_87_" class="st4" cx="106.1" cy="161.1" r="30.1"/>
	<circle id="XMLID_88_" class="st4" cx="407.1" cy="161.1" r="30.1"/>
	<circle id="XMLID_89_" class="st4" cx="256.1" cy="372.1" r="30.1"/>
</g>
<g id="Design_7" class="st1">
	<g id="XMLID_49_" class="st5">
		<path id="XMLID_56_" class="st0" d="M42,109h193.5L258,86.5l22.5,22.5h191.6c0-1.4-0.1-2.2-0.1-2.2V56H258.6H40v50.8
			c0,0-3,82.4,25,172.7L235.5,109H42z"/>
		<path id="XMLID_60_" class="st0" d="M448.7,277.2c24.2-80.8,23.7-154.7,23.4-168.2H280.5L448.7,277.2z"/>
		<path id="XMLID_64_" class="st0" d="M201.8,468.7l-94.1-94.1C130.5,411.2,161,444.4,201.8,468.7z"/>
		<path id="XMLID_70_" class="st0" d="M401.5,381.4l-84.4,84.4C352.8,443.3,380.3,413.9,401.5,381.4z"/>
		<polygon id="XMLID_71_" class="st4" points="235.5,109 280.5,109 258,86.5 		"/>
		<path id="XMLID_72_" class="st4" d="M258,154.1l172.7,172.7c7.1-16.5,13.1-33.2,18-49.6L280.5,109h-45L65,279.5
			c5.1,16.3,11.1,32.8,18.4,49.2L258,154.1z"/>
		<path id="XMLID_76_" class="st0" d="M257.4,493.8c-0.1,0-0.1,0-0.2-0.1c-0.1,0-0.1,0-0.2,0.1H257.4z"/>
		<path id="XMLID_77_" class="st0" d="M83.4,328.7c6.9,15.6,15,31,24.3,45.9l94.1,94.1c16.7,10,35.1,18.5,55.4,25
			c22.2-7.2,42.1-16.7,59.9-27.9l84.4-84.4c11.5-17.6,21.1-36,29.2-54.6L258,154.1L83.4,328.7z"/>
	</g>
	<text id="XMLID_22_" transform="matrix(1.0614 0 0 1 186.6795 381.43)" class="st6 st7 st8">μ</text>
</g>
<g id="Design_6" class="st1">
	<g id="XMLID_48_" class="st5">
		<path id="XMLID_50_" class="st0" d="M472.1,109h-35.9c12.6,6.1,24.6,12.8,35.8,20C472.2,119.2,472.1,112.3,472.1,109z"/>
		<path id="XMLID_51_" class="st4" d="M75.8,109h93.6C195.2,84.5,226,70.2,259,70.2s63.8,14.3,89.6,38.8h87.6
			C385.1,84.4,323,70,256,70S126.9,84.4,75.8,109z"/>
		<path id="XMLID_52_" class="st4" d="M169.4,109H75.8c-12.6,6.1-24.5,12.7-35.7,20c0.4,10.9,1.2,25.4,3,42.3
			c31.2-24.7,72.2-43.8,119.1-54.9C164.6,113.8,167,111.3,169.4,109z"/>
		<path id="XMLID_53_" class="st4" d="M348.6,109c3.1,2.9,6.1,6,9.1,9.2c43.8,11.3,82.1,29.8,111.6,53.2c1.7-17,2.5-31.5,2.8-42.4
			c-11.2-7.3-23.1-14-35.8-20H348.6z"/>
		<path id="XMLID_54_" class="st0" d="M162.2,116.3c-46.9,11.1-87.8,30.2-119.1,54.9c5.3,49.6,18.8,120.4,53.4,184.3
			c-1.7-13.9-2.6-28.3-2.6-43C94,231.9,120.9,160.4,162.2,116.3z"/>
		<path id="XMLID_55_" class="st0" d="M424,312.6c0,10.7-0.5,21.3-1.4,31.7c29.9-60.8,41.9-126.1,46.6-172.8
			c-29.5-23.4-67.8-41.9-111.6-53.2C397.9,162.4,424,233,424,312.6z"/>
		<path id="XMLID_57_" class="st4" d="M169.4,109h33c5.6-0.7,11.2-1.3,16.9-1.8c11.7-4.5,23.9-6.8,36.5-6.8
			c12.6,0,24.8,2.4,36.4,6.8c5.8,0.5,11.6,1.1,17.4,1.9h39C322.8,84.5,292,70.2,259,70.2S195.2,84.5,169.4,109z"/>
		<path id="XMLID_58_" class="st4" d="M162.2,116.3c13-3.1,26.4-5.5,40.2-7.3h-33C167,111.3,164.6,113.8,162.2,116.3z"/>
		<path id="XMLID_59_" class="st4" d="M357.6,118.2c-2.9-3.2-6-6.3-9.1-9.2h-39C326.2,111.1,342.2,114.3,357.6,118.2z"/>
		<path id="XMLID_61_" class="st4" d="M296.7,109h12.9c-5.7-0.7-11.5-1.3-17.4-1.9C293.7,107.7,295.2,108.4,296.7,109z"/>
		<path id="XMLID_63_" class="st4" d="M357.6,118.2c-15.4-4-31.5-7.1-48.1-9.2h-12.9C356.4,134.9,400,216.1,400,312.2
			c0,32.5-5,63.3-13.9,90.8c14.4-18.5,26.5-38.3,36.5-58.7c0.9-10.4,1.4-20.9,1.4-31.7C424,233,397.9,162.4,357.6,118.2z"/>
		<path id="XMLID_65_" class="st4" d="M292.2,107.1c-11.6-4.4-23.8-6.8-36.4-6.8c-12.6,0-24.8,2.4-36.5,6.8c12-1,24.2-1.6,36.7-1.6
			C268.3,105.6,280.3,106.1,292.2,107.1z"/>
		<path id="XMLID_66_" class="st0" d="M321,463.4c-20.8,3.3-42.6,5-65,5c-21.4,0-42.2-1.6-62.1-4.6c18.7,12.1,39.8,22.3,63.3,29.9
			C281,486,302.1,475.7,321,463.4z"/>
		<path id="XMLID_67_" class="st0" d="M257.4,493.8c-0.1,0-0.1,0-0.2-0.1c-0.1,0-0.1,0-0.2,0.1H257.4z"/>
		<path id="XMLID_68_" class="st0" d="M256,105.6c-12.4,0-24.7,0.6-36.7,1.6c-1.5,0.6-2.9,1.2-4.4,1.8h81.8c-1.5-0.6-3-1.3-4.5-1.9
			C280.3,106.1,268.3,105.6,256,105.6z"/>
		<path id="XMLID_69_" class="st0" d="M111.6,312.2c0,30.7,4.5,59.9,12.5,86.3c18.8,24.8,41.7,47.2,69.8,65.4
			c20,3,40.8,4.6,62.1,4.6c22.4,0,44.1-1.8,65-5c25.9-16.9,47.3-37.6,65.1-60.4c8.9-27.5,13.9-58.3,13.9-90.8
			c0-96.1-43.6-177.3-103.3-203.2h-81.8C155.2,134.9,111.6,216.1,111.6,312.2z"/>
	</g>
	<text id="XMLID_15_" transform="matrix(1.4182 0 0 1 178.8203 363.4961)" class="st6 st9 st10">λ</text>
	<g id="XMLID_19_" class="st5">
		<path id="XMLID_44_" class="st4" d="M309.6,110h126.6C385.1,85.4,323,71,256,71S126.9,85.4,75.8,110h126.6
			c17.3-2.2,35.2-3.4,53.6-3.4S292.2,107.8,309.6,110z"/>
		<path id="XMLID_40_" class="st4" d="M257.4,494.8c-0.1,0-0.1,0-0.2-0.1c-0.1,0-0.1,0-0.2,0.1H257.4z"/>
		<path id="XMLID_39_" class="st4" d="M202.4,110H75.8c-12.6,6.1-24.5,12.7-35.7,20c0.4,10.9,1.2,25.4,3,42.3
			C83,140.7,138.8,118.2,202.4,110z"/>
		<path id="XMLID_33_" class="st4" d="M309.6,110c63.8,8.2,119.7,30.8,159.6,62.5c1.7-17,2.5-31.5,2.8-42.4
			c-11.2-7.3-23.1-14-35.8-20H309.6z"/>
	</g>
</g>
<g id="Design_5" class="st1">
	<g id="XMLID_29_" class="st5">
		<path id="XMLID_30_" class="st0" d="M42,110h33.8C126.9,85.4,189,71,256,71s129.1,14.4,180.2,39h35.9c0-1.4-0.1-2.2-0.1-2.2V57
			H258.6H40v50.8c0,0-0.3,8.2,0.2,22.1c11.1-7.2,23.1-13.9,35.7-20H42z"/>
		<path id="XMLID_32_" class="st0" d="M471.9,130c0.3-9.8,0.2-16.7,0.1-20h-35.9C448.8,116.1,460.8,122.8,471.9,130z"/>
		<path id="XMLID_34_" class="st4" d="M309.6,110h126.6C385.1,85.4,323,71,256,71S126.9,85.4,75.8,110h126.6
			c17.3-2.2,35.2-3.4,53.6-3.4S292.2,107.8,309.6,110z"/>
		<path id="XMLID_35_" class="st0" d="M193.9,464.8c18.7,12.1,39.8,22.3,63.3,29.9c23.8-7.7,44.9-18.1,63.8-30.4
			c-20.8,3.3-42.6,5-65,5C234.6,469.4,213.8,467.8,193.9,464.8z"/>
		<path id="XMLID_36_" class="st4" d="M257.4,494.8c-0.1,0-0.1,0-0.2-0.1c-0.1,0-0.1,0-0.2,0.1H257.4z"/>
		<path id="XMLID_37_" class="st4" d="M202.4,110H75.8c-12.6,6.1-24.5,12.7-35.7,20c0.4,10.9,1.2,25.4,3,42.3
			C83,140.7,138.8,118.2,202.4,110z"/>
		<path id="XMLID_38_" class="st4" d="M309.6,110c63.8,8.2,119.7,30.8,159.6,62.5c1.7-17,2.5-31.5,2.8-42.4
			c-11.2-7.3-23.1-14-35.8-20H309.6z"/>
		<path id="XMLID_41_" class="st0" d="M256,106.6c-18.3,0-36.2,1.2-53.6,3.4h107.1C292.2,107.8,274.3,106.6,256,106.6z"/>
		<path id="XMLID_42_" class="st0" d="M202.4,110c-63.6,8.2-119.4,30.7-159.3,62.2c8.7,81.8,39.9,221,150.7,292.6
			c20,3,40.8,4.6,62.1,4.6c22.4,0,44.1-1.8,65-5c109.6-71.7,140-210.2,148.2-291.9c-39.9-31.6-95.8-54.2-159.6-62.5H202.4z"/>
	</g>
	<text id="XMLID_12_" transform="matrix(1.4182 0 0 1 178.8203 366.4961)" class="st6 st9 st10">λ</text>
</g>
<g id="Design_4" class="st1">
	<g id="XMLID_20_" class="st5">
		<path id="XMLID_26_" class="st0" d="M186.2,457.6c20.6,14.4,44.2,26.4,71.1,35.1c27.1-8.8,50.8-21,71.5-35.6
			c-22.9,4.6-47.3,7-72.6,7C231.8,464.2,208.3,461.9,186.2,457.6z"/>
		<path id="XMLID_27_" class="st4" d="M257.4,492.8c-0.1,0-0.1,0-0.2-0.1c-0.1,0-0.1,0-0.2,0.1H257.4z"/>
		<path id="XMLID_28_" class="st11" d="M256.1,156.8c86,0,161.5,28.5,204.5,71.4c3.5-17.7,6-34.5,7.8-49.6
			c-53.9-35-129.1-56.7-212.2-56.7c-83,0-158.1,21.7-212,56.5c1.8,15,4.3,31.7,8,49.3C95,185.1,170.4,156.8,256.1,156.8z"/>
		<path id="XMLID_31_" class="st0" d="M256.1,156.8c-85.7,0-161,28.3-204,71c15.8,77,51.9,172.5,134.1,229.8
			c22.1,4.2,45.6,6.5,69.9,6.5c25.3,0,49.7-2.5,72.6-7c81.1-57.3,116.5-152.2,131.9-228.9C417.6,185.3,342.1,156.8,256.1,156.8z"/>
	</g>
	<text id="XMLID_10_" transform="matrix(1.4525 0 0 1 180.2319 379.877)" class="st12 st9 st13">λ</text>
</g>
<g id="Design_3" class="st1">
	<g id="XMLID_18_" class="st5">
		<path id="XMLID_21_" class="st4" d="M94.4,341.3c0-89.6,72.6-162.2,162.2-162.2s162.2,72.6,162.2,162.2c0,4-0.2,8-0.4,11.9
			c18-34.4,30-70.6,38-104.4c-34.9-75.4-111.2-127.6-199.8-127.6c-88.9,0-165.5,52.7-200.2,128.6c8.2,33.7,20.4,69.8,38.5,104.1
			C94.6,349.8,94.4,345.6,94.4,341.3z"/>
		<path id="XMLID_23_" class="st0" d="M255.6,179.1c-89.6,0-162.2,72.6-162.2,162.2c0,4.3,0.2,8.5,0.5,12.6
			c32,60.3,82.4,115,162,140.8c79.6-25.9,129.8-80.8,161.5-141.5c0.3-3.9,0.4-7.9,0.4-11.9C417.8,251.8,345.2,179.1,255.6,179.1z"/>
		<path id="XMLID_24_" class="st0" d="M255.9,494.8C255.9,494.7,255.9,494.7,255.9,494.8c-0.1,0-0.1,0-0.1,0H255.9z"/>
	</g>
	<text id="XMLID_5_" transform="matrix(1.3651 0 0 1 186.9995 397.877)" class="st6 st9 st13">λ</text>
</g>
<g id="Design_2" class="st1">
	<g id="XMLID_13_" class="st5">
		<path id="XMLID_16_" class="st4" d="M256.9,494.9C256.9,494.9,256.9,494.9,256.9,494.9c-0.1,0-0.1,0-0.1,0H256.9z"/>
		<path id="XMLID_17_" class="st4" d="M256.8,494.9c120.7-39.2,173.9-145.4,197.3-236.7c-41.4-71.6-114.4-119.1-197.6-119.1
			c-83.5,0-156.7,47.8-198,119.7C82.3,349.9,136,455.8,256.8,494.9z"/>
	</g>
	<text id="XMLID_4_" transform="matrix(1.4481 0 0 1 183.293 386.9463)" class="st2 st9 st14">λ</text>
</g>
<g id="Design_1" class="st1">
	<path id="XMLID_9_" class="st6" d="M471.8,132.2c0,0-315.5,127.5-423.3,78.1c4.5,28.1,14.5,68.5,23.7,90.8
		c16.8,40.7,398.2-144.7,398.2-144.7C471,153.1,472,138.7,471.8,132.2z"/>
	<text id="XMLID_7_" transform="matrix(1.2161 0 0 1 275.9999 396.2119)" class="st6 st9 st15">λ</text>
</g>
</svg>
